<mxfile host="app.diagrams.net" agent="Mozilla/5.0 (Windows NT 10.0; Win64; x64) AppleWebKit/537.36 (KHTML, like Gecko) Chrome/133.0.0.0 Safari/537.36" version="26.0.16">
  <diagram name="第 1 页" id="bHZFeoZuUw00jVMOtmrE">
    <mxGraphModel dx="1366" dy="703" grid="1" gridSize="10" guides="1" tooltips="1" connect="1" arrows="1" fold="1" page="1" pageScale="1" pageWidth="827" pageHeight="1169" math="0" shadow="0">
      <root>
        <mxCell id="0" />
        <mxCell id="1" parent="0" />
        <mxCell id="XdAG9XaZiSqPZXw9-a58-1" value="" style="whiteSpace=wrap;html=1;aspect=fixed;fillColor=#dae8fc;strokeColor=#6c8ebf;" vertex="1" parent="1">
          <mxGeometry x="109" y="730" width="150" height="150" as="geometry" />
        </mxCell>
        <mxCell id="XdAG9XaZiSqPZXw9-a58-2" value="" style="whiteSpace=wrap;html=1;aspect=fixed;" vertex="1" parent="1">
          <mxGeometry x="309" y="730" width="150" height="150" as="geometry" />
        </mxCell>
        <mxCell id="XdAG9XaZiSqPZXw9-a58-3" value="" style="whiteSpace=wrap;html=1;aspect=fixed;fillColor=#f8cecc;strokeColor=#b85450;" vertex="1" parent="1">
          <mxGeometry x="549" y="730" width="150" height="150" as="geometry" />
        </mxCell>
        <mxCell id="XdAG9XaZiSqPZXw9-a58-4" value="1" style="whiteSpace=wrap;html=1;aspect=fixed;fillColor=#d5e8d4;strokeColor=#82b366;" vertex="1" parent="1">
          <mxGeometry x="309" y="730" width="75" height="75" as="geometry" />
        </mxCell>
        <mxCell id="XdAG9XaZiSqPZXw9-a58-5" value="" style="whiteSpace=wrap;html=1;aspect=fixed;fillColor=#f5f5f5;fontColor=#333333;strokeColor=#666666;" vertex="1" parent="1">
          <mxGeometry x="184" y="730" width="75" height="75" as="geometry" />
        </mxCell>
        <mxCell id="XdAG9XaZiSqPZXw9-a58-11" value="" style="whiteSpace=wrap;html=1;aspect=fixed;fillColor=#f5f5f5;strokeColor=#666666;fontColor=#333333;" vertex="1" parent="1">
          <mxGeometry x="184" y="805" width="75" height="75" as="geometry" />
        </mxCell>
        <mxCell id="XdAG9XaZiSqPZXw9-a58-16" value="" style="whiteSpace=wrap;html=1;aspect=fixed;fillColor=#f5f5f5;strokeColor=#666666;fontColor=#333333;" vertex="1" parent="1">
          <mxGeometry x="624" y="805" width="75" height="75" as="geometry" />
        </mxCell>
        <mxCell id="XdAG9XaZiSqPZXw9-a58-17" value="" style="whiteSpace=wrap;html=1;aspect=fixed;fillColor=#f5f5f5;strokeColor=#666666;fontColor=#333333;" vertex="1" parent="1">
          <mxGeometry x="549" y="805" width="75" height="75" as="geometry" />
        </mxCell>
        <mxCell id="XdAG9XaZiSqPZXw9-a58-18" value="" style="whiteSpace=wrap;html=1;aspect=fixed;fillColor=#f5f5f5;fontColor=#333333;strokeColor=#666666;" vertex="1" parent="1">
          <mxGeometry x="624" y="730" width="75" height="75" as="geometry" />
        </mxCell>
        <mxCell id="XdAG9XaZiSqPZXw9-a58-24" value="" style="whiteSpace=wrap;html=1;aspect=fixed;fillColor=#ffe6cc;strokeColor=#d79b00;" vertex="1" parent="1">
          <mxGeometry x="430" y="160" width="330" height="330" as="geometry" />
        </mxCell>
        <mxCell id="XdAG9XaZiSqPZXw9-a58-25" value="PE0,0" style="whiteSpace=wrap;html=1;aspect=fixed;" vertex="1" parent="1">
          <mxGeometry x="470" y="190" width="90" height="90" as="geometry" />
        </mxCell>
        <mxCell id="XdAG9XaZiSqPZXw9-a58-27" value="FIFO" style="rounded=0;whiteSpace=wrap;html=1;" vertex="1" parent="1">
          <mxGeometry x="514" y="510" width="185" height="20" as="geometry" />
        </mxCell>
        <mxCell id="XdAG9XaZiSqPZXw9-a58-28" value="FIFO" style="rounded=0;whiteSpace=wrap;html=1;direction=south;horizontal=0;" vertex="1" parent="1">
          <mxGeometry x="374" y="190" width="20" height="185" as="geometry" />
        </mxCell>
        <mxCell id="XdAG9XaZiSqPZXw9-a58-29" value="A0,0" style="whiteSpace=wrap;html=1;aspect=fixed;fillColor=#dae8fc;strokeColor=#6c8ebf;" vertex="1" parent="1">
          <mxGeometry x="302.5" y="190" width="50" height="50" as="geometry" />
        </mxCell>
        <mxCell id="XdAG9XaZiSqPZXw9-a58-30" value="A0,31" style="whiteSpace=wrap;html=1;aspect=fixed;fillColor=#dae8fc;strokeColor=#6c8ebf;" vertex="1" parent="1">
          <mxGeometry x="302.5" y="325" width="50" height="50" as="geometry" />
        </mxCell>
        <mxCell id="XdAG9XaZiSqPZXw9-a58-32" value="B0,0" style="rounded=0;whiteSpace=wrap;html=1;fillColor=#d5e8d4;strokeColor=#82b366;" vertex="1" parent="1">
          <mxGeometry x="490" y="250" width="50" height="20" as="geometry" />
        </mxCell>
        <mxCell id="XdAG9XaZiSqPZXw9-a58-34" value="PE31,31" style="whiteSpace=wrap;html=1;aspect=fixed;fillColor=#f5f5f5;strokeColor=#666666;fontColor=#333333;" vertex="1" parent="1">
          <mxGeometry x="655" y="350" width="90" height="90" as="geometry" />
        </mxCell>
        <mxCell id="XdAG9XaZiSqPZXw9-a58-35" value="B31,31" style="rounded=0;whiteSpace=wrap;html=1;fillColor=#d5e8d4;strokeColor=#82b366;" vertex="1" parent="1">
          <mxGeometry x="675" y="410" width="50" height="20" as="geometry" />
        </mxCell>
        <mxCell id="XdAG9XaZiSqPZXw9-a58-36" value="C0,0" style="whiteSpace=wrap;html=1;aspect=fixed;fillColor=#f8cecc;strokeColor=#b85450;" vertex="1" parent="1">
          <mxGeometry x="514" y="550" width="40" height="40" as="geometry" />
        </mxCell>
        <mxCell id="XdAG9XaZiSqPZXw9-a58-37" value="C31,31" style="whiteSpace=wrap;html=1;aspect=fixed;fillColor=#f8cecc;strokeColor=#b85450;" vertex="1" parent="1">
          <mxGeometry x="659" y="630" width="40" height="40" as="geometry" />
        </mxCell>
        <mxCell id="XdAG9XaZiSqPZXw9-a58-38" value="C31,31" style="whiteSpace=wrap;html=1;aspect=fixed;fillColor=#f8cecc;strokeColor=#b85450;" vertex="1" parent="1">
          <mxGeometry x="656.5" y="550" width="40" height="40" as="geometry" />
        </mxCell>
        <mxCell id="XdAG9XaZiSqPZXw9-a58-39" value="C31,0" style="whiteSpace=wrap;html=1;aspect=fixed;fillColor=#f8cecc;strokeColor=#b85450;" vertex="1" parent="1">
          <mxGeometry x="514" y="630" width="40" height="40" as="geometry" />
        </mxCell>
        <mxCell id="XdAG9XaZiSqPZXw9-a58-40" value="1" style="text;strokeColor=none;align=center;fillColor=none;html=1;verticalAlign=middle;whiteSpace=wrap;rounded=0;" vertex="1" parent="1">
          <mxGeometry x="120" y="800" width="60" height="30" as="geometry" />
        </mxCell>
        <mxCell id="XdAG9XaZiSqPZXw9-a58-41" value="1" style="text;strokeColor=none;align=center;fillColor=none;html=1;verticalAlign=middle;whiteSpace=wrap;rounded=0;" vertex="1" parent="1">
          <mxGeometry x="560" y="752.5" width="60" height="30" as="geometry" />
        </mxCell>
      </root>
    </mxGraphModel>
  </diagram>
</mxfile>
